HIERARCHY
ROOT Hips
{
 OFFSET 0.000000 0.000000 0.000000
 CHANNELS 6 Xposition Yposition Zposition Yrotation Xrotation Zrotation
 JOINT Chest
 {
  OFFSET 0.000000 9.585900 0.002600
  CHANNELS 3 Yrotation Xrotation Zrotation
  JOINT Chest2
  {
   OFFSET 0.000000 9.601200 -0.005300
   CHANNELS 3 Yrotation Xrotation Zrotation
   JOINT Chest3
   {
    OFFSET 0.000000 9.561800 0.000000
    CHANNELS 3 Yrotation Xrotation Zrotation
    JOINT Chest4
    {
     OFFSET 0.000000 9.552100 0.000000
     CHANNELS 3 Yrotation Xrotation Zrotation
     JOINT Neck
     {
      OFFSET 0.000000 14.453000 0.000000
      CHANNELS 3 Yrotation Xrotation Zrotation
      JOINT Head
      {
       OFFSET 0.000000 8.936500 -0.011300
       CHANNELS 3 Yrotation Xrotation Zrotation
       End Site
       {
        OFFSET 0.000000 17.073600 -0.006000
       }
      }
     }
     JOINT RightCollar
     {
      OFFSET -2.921100 9.558500 0.000000
      CHANNELS 3 Yrotation Xrotation Zrotation
      JOINT RightShoulder
      {
       OFFSET -13.519700 0.000000 0.000000
       CHANNELS 3 Yrotation Xrotation Zrotation
       JOINT RightElbow
       {
        OFFSET 0.000000 -29.696600 0.000000
        CHANNELS 3 Yrotation Xrotation Zrotation
        JOINT RightWrist
        {
         OFFSET 0.000000 -24.004700 0.000000
         CHANNELS 3 Yrotation Xrotation Zrotation
         End Site
         {
          OFFSET 0.000000 -17.728500 0.000000
         }
        }
       }
      }
     }
     JOINT LeftCollar
     {
      OFFSET 2.921100 9.558500 0.000000
      CHANNELS 3 Yrotation Xrotation Zrotation
      JOINT LeftShoulder
      {
       OFFSET 13.519700 0.000000 0.000000
       CHANNELS 3 Yrotation Xrotation Zrotation
       JOINT LeftElbow
       {
        OFFSET 0.000000 -29.696600 0.000000
        CHANNELS 3 Yrotation Xrotation Zrotation
        JOINT LeftWrist
        {
         OFFSET 0.000000 -24.004700 0.000000
         CHANNELS 3 Yrotation Xrotation Zrotation
         End Site
         {
          OFFSET 0.000000 -17.728500 0.000000
         }
        }
       }
      }
     }
    }
   }
  }
 }
 JOINT RightHip
 {
  OFFSET -7.771700 -0.012900 -0.001300
  CHANNELS 3 Yrotation Xrotation Zrotation
  JOINT RightKnee
  {
   OFFSET 0.000000 -40.869800 0.001200
   CHANNELS 3 Yrotation Xrotation Zrotation
   JOINT RightAnkle
   {
    OFFSET 0.000000 -39.717900 0.002100
    CHANNELS 3 Yrotation Xrotation Zrotation
    JOINT RightToe
    {
     OFFSET 0.000000 -4.965400 11.033500
     CHANNELS 3 Yrotation Xrotation Zrotation
     End Site
     {
      OFFSET 0.000000 -1.423100 5.872300
     }
    }
   }
  }
 }
 JOINT LeftHip
 {
  OFFSET 7.771700 -0.012900 -0.001300
  CHANNELS 3 Yrotation Xrotation Zrotation
  JOINT LeftKnee
  {
   OFFSET 0.000000 -40.869800 0.001200
   CHANNELS 3 Yrotation Xrotation Zrotation
   JOINT LeftAnkle
   {
    OFFSET 0.000000 -39.717900 0.002100
    CHANNELS 3 Yrotation Xrotation Zrotation
    JOINT LeftToe
    {
     OFFSET 0.000000 -4.965400 11.033500
     CHANNELS 3 Yrotation Xrotation Zrotation
     End Site
     {
      OFFSET 0.000000 -1.423100 5.872300
     }
    }
   }
  }
 }
}
MOTION
Frames: 16
Frame Time: 0.008333
0.000000 85.388000 0.000000 0.000000 -5.767877 0.000000 0.000000 11.653817 0.000000 0.000000 -5.885947 0.000000 0.000000 -0.000000 0.000000 0.000000 -0.000000 0.000000 0.000000 12.528835 0.000000 0.000000 0.711642 0.000000 0.000000 -0.000000 0.000000 0.000000 0.000000 -90.000000 0.000000 -2.309062 0.000000 0.000000 2.309062 0.000000 0.000000 -0.000000 0.000000 0.000000 -0.000000 90.000000 0.000000 -2.309062 0.000000 0.000000 2.309062 0.000000 0.000000 8.520406 0.000000 0.000000 1.905762 0.000000 -0.000000 -4.658285 0.000000 0.000000 -0.000000 0.000000 0.000000 8.520406 0.000000 0.000000 1.905762 0.000000 -0.000000 -4.658285 0.000000 0.000000 -0.000000 0.000000
-17.438912 43.617719 26.132016 176.900591 -27.769279 0.053819 0.738631 18.013116 1.902024 0.058938 2.018478 0.258472 0.102703 3.345014 0.429841 0.719996 15.734401 2.120417 -0.382707 14.538369 -3.553372 0.406331 -10.421907 -3.653938 12.083611 -1.359143 -5.269482 18.603319 -21.757340 -9.542274 174.930600 -58.050197 -153.187271 -0.080779 0.371761 -53.139281 -18.528065 -5.685463 -4.802225 -10.225228 -21.779131 7.166813 166.472848 -58.318582 163.664233 7.083982 4.276520 33.792252 -2.899388 -63.632152 7.439661 -157.798957 67.499778 -155.810676 -9.570403 -23.802235 7.229740 0.444943 -0.935092 0.213095 4.098984 -47.892958 -2.105351 179.366703 56.995535 178.922557 -2.633066 -40.815089 2.680720 -0.089977 -6.405653 1.780834
-17.441730 43.614835 26.128327 176.888034 -27.640997 0.067841 0.737217 18.014959 1.906572 0.058204 2.020451 0.260827 0.101601 3.348184 0.433719 0.716174 15.739801 2.137190 -0.404095 14.508328 -3.565492 0.408539 -10.494274 -3.679378 12.081183 -1.300220 -5.245123 18.566869 -21.726060 -9.534353 174.951909 -58.150245 -153.190915 -0.122367 0.353041 -53.135405 -18.535248 -5.648577 -4.826473 -10.204224 -21.720440 7.177076 166.457306 -58.394429 163.662433 7.132298 4.316271 33.913334 -2.922786 -63.757214 7.458217 -157.798737 67.498666 -155.826592 -9.545711 -23.803267 7.219366 0.446591 -0.935661 0.210625 4.135414 -48.014845 -2.124887 179.374695 56.993605 178.923462 -2.645280 -40.826997 2.694432 -0.090364 -6.400674 1.784833
-17.445503 43.616563 26.112945 176.872090 -27.563424 0.088898 0.734676 18.063652 1.907956 0.057603 2.022731 0.263358 0.100648 3.351782 0.437844 0.713256 15.746087 2.155135 -0.424552 14.482911 -3.581579 0.408525 -10.567170 -3.705142 12.081300 -1.238015 -5.227517 18.534077 -21.695209 -9.525731 174.990092 -58.261999 -153.214986 -0.169171 0.328475 -53.138844 -18.548551 -5.612616 -4.847953 -10.201769 -21.657440 7.177907 166.490747 -58.473519 163.645332 7.176417 4.379568 34.011536 -2.917257 -63.833480 7.448995 -157.785891 67.485170 -155.816634 -9.555171 -23.764696 7.197496 0.426396 -0.972509 0.218236 4.177521 -48.059848 -2.136407 179.400645 56.998881 178.934463 -2.672279 -40.872589 2.727429 -0.089197 -6.379950 1.789688
-17.446184 43.613867 26.103226 176.856190 -27.426334 0.085436 0.736816 18.049313 1.935631 0.056975 2.025286 0.265980 0.109538 3.292222 0.426466 0.704558 15.816512 2.191171 -0.442159 14.461478 -3.601574 0.387769 -10.595800 -3.717541 12.084789 -1.171939 -5.215656 18.509960 -21.668009 -9.516419 175.051986 -58.387562 -153.268375 -0.216818 0.300155 -53.132614 -18.567044 -5.578889 -4.869959 -10.209402 -21.588652 7.173459 166.567600 -58.553249 163.611634 7.218458 4.461282 34.088654 -2.949602 -63.970095 7.481988 -157.678648 67.460625 -155.705745 -9.505364 -23.725336 7.158182 0.428656 -1.007660 0.234958 4.196808 -48.180599 -2.117239 179.433371 56.993584 178.953956 -2.693267 -40.912250 2.759962 -0.088915 -6.361385 1.790392
-17.446727 43.611567 26.089757 176.816734 -27.297257 0.089397 0.758570 18.039531 1.965836 0.056204 2.027653 0.268611 0.119596 3.236331 0.415969 0.693637 15.882184 2.226433 -0.456382 14.445434 -3.623358 0.374177 -10.616625 -3.733825 12.095082 -1.098569 -5.205870 18.498341 -21.644101 -9.509556 175.132483 -58.529385 -153.356268 -0.262228 0.267539 -53.097734 -18.583989 -5.542278 -4.894186 -10.217312 -21.519605 7.168109 166.653804 -58.639463 163.572937 7.258308 4.549169 34.152646 -2.947603 -64.098403 7.505834 -157.647541 67.449262 -155.670743 -9.453364 -23.681405 7.122817 0.411435 -1.032147 0.240637 4.231981 -48.279809 -2.070711 179.500331 56.990203 178.991111 -2.729238 -40.975149 2.821498 -0.093935 -6.330349 1.790065
-17.447354 43.609750 26.072403 176.793778 -27.181212 0.084786 0.764700 18.040442 1.995400 0.055307 2.030026 0.271322 0.103052 3.333117 0.443666 0.697642 15.795866 2.219438 -0.467086 14.434713 -3.645535 0.345159 -10.554925 -3.739293 12.110629 -1.021651 -5.196606 18.497309 -21.620721 -9.505640 175.228324 -58.686107 -153.473197 -0.307633 0.229735 -53.023856 -18.594398 -5.500282 -4.920947 -10.222792 -21.456723 7.164348 166.720161 -58.731320 163.542939 7.295915 4.643652 34.211966 -2.954525 -64.213075 7.526826 -157.584857 67.422815 -155.602685 -9.393433 -23.636687 7.084184 0.412401 -1.060962 0.252435 4.243597 -48.368978 -2.039008 179.532198 56.981732 179.005634 -2.747413 -41.029704 2.851385 -0.091912 -6.311307 1.789924
-17.448136 43.606616 26.054817 176.771735 -27.056425 0.079552 0.768771 18.034091 2.024096 0.054351 2.032806 0.274197 0.095548 3.367609 0.455646 0.696182 15.773660 2.231389 -0.473824 14.426629 -3.668036 0.336744 -10.535642 -3.756703 12.124672 -0.946092 -5.187740 18.496016 -21.603491 -9.503883 175.365802 -58.858298 -153.624659 -0.352498 0.191804 -52.910487 -18.598842 -5.457939 -4.948662 -10.224995 -21.402034 7.161131 166.755482 -58.824432 163.527861 7.335196 4.755634 34.272712 -2.972750 -64.335411 7.564677 -157.510157 67.392199 -155.526529 -9.358247 -23.607767 7.063960 0.432925 -1.097359 0.268904 4.254782 -48.470522 -2.016620 179.548795 56.969408 179.011203 -2.759239 -41.079833 2.868842 -0.092457 -6.297138 1.790963
-17.447729 43.603479 26.034702 176.717185 -26.940387 0.083474 0.801414 18.040102 2.058727 0.053379 2.035971 0.277223 0.093905 3.372523 0.460600 0.690640 15.782486 2.252359 -0.476635 14.418962 -3.691804 0.339338 -10.543002 -3.781818 12.135974 -0.873093 -5.180050 18.477430 -21.595971 -9.504024 175.573108 -59.046238 -153.822033 -0.399575 0.158614 -52.761519 -18.598191 -5.422958 -4.978318 -10.223550 -21.353996 7.159468 166.759517 -58.921853 163.529415 7.384690 4.885785 34.339566 -2.938228 -64.447405 7.576150 -157.541113 67.387453 -155.539506 -9.337103 -23.584794 7.051866 0.408894 -1.095156 0.255030 4.287381 -48.557446 -1.979103 179.564070 56.953876 179.014378 -2.778714 -41.131709 2.891443 -0.089956 -6.290649 1.791279
-17.442818 43.597709 26.017641 176.684147 -26.798002 0.052199 0.821666 18.022736 2.120496 0.052357 2.039288 0.280358 0.106363 3.310406 0.449132 0.675338 15.858649 2.292828 -0.475962 14.409719 -3.717157 0.345912 -10.551905 -3.809441 12.151823 -0.804783 -5.174931 18.432923 -21.589049 -9.506603 175.839015 -59.243840 -154.057793 -0.458490 0.127957 -52.578231 -18.592008 -5.399263 -5.011685 -10.218137 -21.309969 7.161941 166.733135 -59.029145 163.551660 7.446824 5.026177 34.415501 -2.928635 -64.570791 7.600642 -157.599443 67.384581 -155.551466 -9.291185 -23.656039 7.046066 0.338863 -0.999831 0.215251 4.274869 -48.684629 -1.897824 179.593907 56.929091 179.031744 -2.801204 -41.183107 2.919869 -0.090990 -6.281566 1.790551
-17.439592 43.591867 25.998449 176.675301 -26.662255 0.024900 0.816336 18.015537 2.167972 0.051270 2.042599 0.283529 0.097625 3.348938 0.462450 0.673671 15.834692 2.305102 -0.472614 14.396934 -3.742875 0.355341 -10.564436 -3.838083 12.172536 -0.745058 -5.173139 18.364571 -21.575378 -9.509856 176.135356 -59.443845 -154.316318 -0.531064 0.100211 -52.360666 -18.579984 -5.383381 -5.046513 -10.206225 -21.272828 7.169134 166.667630 -59.151076 163.599792 7.519086 5.166467 34.502986 -2.962277 -64.691828 7.646721 -157.637848 67.374159 -155.562383 -9.299514 -23.686161 7.044452 0.344713 -0.979009 0.208203 4.261930 -48.803512 -1.852766 179.614967 56.907349 179.047773 -2.809966 -41.239674 2.929762 -0.093001 -6.265256 1.796451
-17.446446 43.593298 25.962095 176.742191 -26.630842 0.034793 0.732481 18.050035 2.134188 0.038186 2.112240 0.298938 0.088659 3.388213 0.475998 0.672099 15.810277 2.316984 -0.467514 14.379878 -3.768840 0.366644 -10.581429 -3.867394 12.188684 -0.696973 -5.173577 18.275679 -21.557105 -9.512040 176.448718 -59.642148 -154.587908 -0.609712 0.084583 -52.117430 -18.564802 -5.370040 -5.081600 -10.183615 -21.245405 7.182225 166.559103 -59.287354 163.669643 7.602486 5.293904 34.603933 -2.911660 -64.710581 7.522236 -157.792634 67.336256 -155.671236 -9.439041 -23.706465 7.060455 0.393596 -0.992592 0.213751 4.261582 -48.795126 -1.909390 179.635334 56.902020 179.052765 -2.828290 -41.293899 2.957789 -0.080096 -6.252397 1.802311
-17.441270 43.586167 25.941661 176.705928 -26.492149 0.018708 0.748041 18.077424 2.188366 0.042735 2.082486 0.295930 0.086934 3.393373 0.481111 0.665990 15.819328 2.338267 -0.460646 14.360900 -3.795641 0.380026 -10.600418 -3.898067 12.197648 -0.655639 -5.173667 18.169014 -21.539053 -9.513342 176.764766 -59.837747 -154.859876 -0.688439 0.088433 -51.855619 -18.548645 -5.354607 -5.118855 -10.150358 -21.226471 7.203702 166.411736 -59.435249 163.760270 7.693641 5.402545 34.711769 -2.953269 -64.843918 7.602388 -157.849385 67.322880 -155.715560 -9.442267 -23.728801 7.068814 0.410913 -0.969407 0.197701 4.277556 -48.913742 -1.859169 179.657355 56.876814 179.070211 -2.841569 -41.351185 2.974570 -0.084619 -6.241787 1.806712
-17.430893 43.576864 25.924374 176.651162 -26.330139 -0.017269 0.788002 18.081176 2.270450 0.048080 2.052032 0.292639 0.085411 3.397819 0.485867 0.660761 15.827040 2.358178 -0.452928 14.342108 -3.821644 0.394196 -10.619272 -3.928128 12.198759 -0.612512 -5.169953 18.049945 -21.526874 -9.509240 177.047015 -60.031773 -155.106804 -0.764808 0.108541 -51.565397 -18.532212 -5.333272 -5.156604 -10.106867 -21.215934 7.233091 166.221947 -59.596786 163.880034 7.785277 5.492632 34.811837 -3.014237 -64.990184 7.723277 -157.922244 67.320727 -155.764768 -9.397549 -23.818192 7.082066 0.389159 -0.892561 0.163513 4.279125 -49.063822 -1.770443 179.686520 56.842815 179.102719 -2.844376 -41.407677 2.977977 -0.089332 -6.235060 1.813400
-17.428296 43.569960 25.900564 176.633912 -26.205367 -0.018646 0.785387 18.089206 2.292648 0.047413 2.054649 0.295120 0.084385 3.401908 0.489985 0.657525 15.834212 2.375458 -0.446195 14.321889 -3.844458 0.406632 -10.639687 -3.954491 12.188721 -0.565490 -5.160083 17.919775 -21.526470 -9.493736 177.258835 -60.225226 -155.299579 -0.833190 0.135591 -51.227950 -18.517268 -5.307909 -5.189197 -10.055841 -21.208647 7.265919 165.998102 -59.772709 164.027649 7.872148 5.561836 34.888916 -2.999650 -65.103386 7.724186 -158.033925 67.309666 -155.841936 -9.461846 -23.883275 7.127291 0.397897 -0.849959 0.144188 4.298289 -49.170223 -1.759611 179.717498 56.817540 179.127985 -2.850399 -41.446724 2.988898 -0.091227 -6.239396 1.820392
-17.431806 43.567163 25.867142 176.671098 -26.140111 -0.003277 0.721047 18.156382 2.269634 0.046941 2.057346 0.297214 0.083634 3.406160 0.493320 0.655246 15.841914 2.389365 -0.439192 14.299721 -3.864134 0.415041 -10.711299 -3.981362 12.173614 -0.512813 -5.145151 17.772649 -21.542435 -9.462724 177.366401 -60.419932 -155.411069 -0.889573 0.161412 -50.813299 -18.500417 -5.277586 -5.215081 -10.001550 -21.202196 7.298823 165.761094 -59.963757 164.192943 7.949816 5.605010 34.924591 -2.949730 -65.160436 7.624629 -158.144307 67.271844 -155.925069 -9.513392 -23.908879 7.133791 0.448921 -0.880859 0.162951 4.310529 -49.206589 -1.812095 179.732259 56.801345 179.134255 -2.856238 -41.481867 2.994973 -0.089873 -6.246434 1.830985
